<?xml version="1.0" standalone="no"?>
<!DOCTYPE svg PUBLIC "-//W3C//DTD SVG 20010904//EN"
 "http://www.w3.org/TR/2001/REC-SVG-20010904/DTD/svg10.dtd">
<svg version="1.0" xmlns="http://www.w3.org/2000/svg"
 width="300.000000pt" height="300.000000pt" viewBox="0 0 300.000000 300.000000"
 preserveAspectRatio="xMidYMid meet">
<metadata>
Created by potrace 1.14, written by Peter Selinger 2001-2017
</metadata>
<g transform="translate(0.000000,300.000000) scale(0.100000,-0.100000)"
fill="#000000" stroke="none">
<path d="M1250 2979 c-104 -18 -263 -63 -287 -82 -7 -5 -13 -7 -13 -4 0 11
-205 -96 -268 -139 -35 -24 -65 -44 -68 -44 -4 0 -32 -24 -113 -95 -227 -201
-393 -483 -466 -790 -46 -194 -42 -451 9 -690 16 -71 86 -255 120 -315 11 -19
21 -41 23 -49 1 -8 6 -17 10 -20 5 -3 20 -24 33 -46 74 -124 198 -263 330
-370 63 -51 166 -125 174 -125 2 0 34 -17 72 -38 63 -34 174 -82 229 -98 189
-57 307 -73 490 -69 88 2 174 6 190 9 17 4 53 11 80 17 28 6 64 13 80 16 63
10 287 102 359 146 80 49 168 107 179 118 8 8 34 30 58 49 66 54 145 137 213
225 146 187 238 389 287 625 38 184 32 483 -11 634 -7 22 -13 46 -15 55 -12
59 -66 193 -116 290 -162 311 -420 549 -749 694 -62 27 -129 50 -181 62 -11 2
-29 7 -39 10 -26 8 -60 16 -100 22 -19 3 -53 8 -76 12 -79 15 -325 9 -434 -10z
m373 -343 c256 -30 488 -140 667 -315 78 -77 180 -200 180 -219 0 -5 7 -15 15
-22 9 -7 13 -15 11 -18 -3 -3 3 -17 13 -31 17 -25 62 -124 65 -146 1 -5 8 -20
14 -32 7 -13 11 -23 8 -23 -2 0 3 -26 12 -57 31 -106 44 -98 -168 -98 -102 0
-203 4 -225 9 -171 36 -276 91 -397 206 -69 66 -178 127 -215 121 -7 -1 -13 2
-13 7 0 8 -160 7 -190 -1 -77 -21 -155 -66 -220 -129 -122 -115 -258 -184
-405 -205 -33 -5 -136 -8 -230 -8 -163 1 -170 2 -168 20 5 49 14 85 38 155 14
41 27 80 29 85 4 13 54 114 69 140 78 132 224 289 342 367 69 46 182 105 240
125 17 6 39 14 50 19 11 4 25 8 30 9 6 2 30 8 55 15 49 14 58 15 170 26 41 3
76 7 77 8 3 3 98 -2 146 -8z m-19 -985 c82 -36 130 -95 151 -185 36 -152 -72
-298 -230 -313 -137 -13 -250 70 -282 207 -10 41 -10 52 1 105 11 58 33 95 83
141 74 70 182 87 277 45z m-769 -516 c72 -15 180 -78 245 -144 60 -61 124
-163 134 -216 3 -11 8 -38 13 -60 18 -81 0 -248 -33 -307 -6 -9 -108 24 -179
57 -166 78 -359 243 -457 390 -46 70 -118 205 -118 222 0 10 144 60 190 66 33
5 168 0 205 -8z m1643 -20 c45 -16 82 -32 82 -37 0 -19 -56 -127 -108 -206
-131 -200 -333 -359 -567 -447 -76 -29 -77 -29 -97 40 -19 65 -19 67 -22 140
-9 239 154 459 389 526 90 26 218 19 323 -16z"/>
<path d="M1447 1480 c-77 -61 -9 -181 83 -148 38 13 64 59 55 99 -8 36 -49 69
-85 69 -15 0 -39 -9 -53 -20z"/>
</g>
</svg>
